<svg width="75" height="76" viewBox="0 0 75 76" fill="none" xmlns="http://www.w3.org/2000/svg">
<rect width="75" height="75" fill="#FBF1E6"/>
<path d="M54.6383 25.2551C52.0144 25.2551 50.1424 26.3985 48.4156 28.8824L43.4375 36.0307V15.6255H31.5625V36.0307L26.5844 28.8824C24.8602 26.3985 22.9882 25.2551 20.3617 25.2551C16.3999 25.2551 13.763 28.1798 13.7501 31.7838C13.7397 34.8692 15.1942 36.8812 18.2615 38.8569L37.5 51.2504L56.7385 38.8569C59.8058 36.8812 61.2603 34.8692 61.2499 31.7838C61.2396 28.1798 58.6001 25.2551 54.6383 25.2551Z" fill="#0AAD0A"/>
<path d="M37.5063 54.2188C48.9404 54.2188 58.3134 62.7542 58.2874 75.0026H16.725C16.7017 62.7594 26.0721 54.2188 37.5063 54.2188Z" fill="#FF7009"/>
</svg>
