<svg width="75" height="75" viewBox="0 0 75 75" fill="none" xmlns="http://www.w3.org/2000/svg">
<rect width="75" height="75" fill="#0F7FCA"/>
<path d="M45.7242 27.535C46.1226 27.1366 46.3717 26.5887 46.3717 25.9827C46.3717 24.7707 45.3838 23.7829 44.1718 23.7829H24.39C21.9578 23.7829 19.9904 21.8155 19.9904 19.3915C19.9904 16.9676 21.908 15.0085 24.3402 15.0085L44.1718 15C50.2649 15 55.1626 19.9309 55.1626 26.0157C55.1626 29.2698 53.7431 32.2001 51.4935 34.2173L40.9759 44.735C40.3284 45.3243 40.0129 46.0382 40.0129 46.9846C40.0129 48.761 41.4158 50.1722 43.1923 50.1722L50.7713 50.1637C53.1952 50.1637 55.1626 52.1477 55.1626 54.5634C55.1626 56.9956 53.1952 58.963 50.7713 58.963H43.184C36.5845 58.963 31.2136 53.5091 31.2136 46.918C31.2136 43.473 32.8822 40.3932 34.7748 38.4922L45.7242 27.535ZM28.7814 54.5804C28.7814 57.0043 26.814 58.9717 24.39 58.9717C21.9578 58.9717 19.9904 57.0043 19.9904 54.5804V32.5822C19.9904 30.1582 21.9578 28.1908 24.39 28.1908C26.814 28.1908 28.7814 30.1582 28.7814 32.5822V54.5804Z" fill="white"/>
</svg>
