<svg width="75" height="75" viewBox="0 0 75 75" fill="none" xmlns="http://www.w3.org/2000/svg">
<rect width="75" height="75" fill="#4C8B04"/>
<path fill-rule="evenodd" clip-rule="evenodd" d="M19.8806 17.5H30.8812V33.7653H36.0358L45.1013 17.5239L50.9939 17.512C55.8347 17.5 56.8865 17.512 56.8749 17.5717C56.8633 17.6076 53.5683 23.4994 42.2422 43.6787L19.8806 43.6846V17.5ZM25.378 45.4952C25.7848 45.5131 26.18 45.5669 26.5112 45.6506C26.7959 45.7223 27.2085 45.8597 27.4294 45.9553C27.656 46.0509 28.0337 46.2601 28.272 46.4214C28.5103 46.5887 28.8473 46.8457 29.0158 46.9951C29.1902 47.1504 29.4807 47.4612 29.6551 47.6942C29.8352 47.9213 30.0735 48.2738 30.1839 48.471C30.2943 48.6742 30.4686 49.0387 30.5616 49.2837C30.6604 49.5287 30.7825 49.9649 30.8406 50.2577C30.9277 50.6939 30.9452 50.9389 30.9219 51.6739C30.9045 52.3551 30.8696 52.6778 30.7825 53.0124C30.7185 53.2574 30.5326 53.7354 30.3757 54.0701C30.213 54.4107 29.9573 54.8588 29.7945 55.0739C29.6376 55.2891 29.3529 55.6237 29.1553 55.8149C28.9635 56.0121 28.6149 56.3049 28.3766 56.4662C28.1383 56.6336 27.7839 56.8427 27.5921 56.9323C27.4003 57.022 27.0865 57.1534 26.8889 57.2192C26.6972 57.2849 26.3078 57.3745 26.0289 57.4163C25.7441 57.4641 25.3548 57.5 25.1514 57.5C24.9538 57.5 24.5993 57.4701 24.3668 57.4402C24.1402 57.4044 23.745 57.3148 23.4952 57.2371C23.2395 57.1594 22.8385 56.9981 22.6002 56.8726C22.3678 56.7531 22.0249 56.5499 21.8448 56.4184C21.6704 56.2929 21.3566 56.03 21.1532 55.8269C20.944 55.6297 20.6302 55.2652 20.4559 55.0202C20.2816 54.7752 20.0259 54.333 19.8922 54.0462C19.7585 53.7534 19.5842 53.2753 19.5087 52.9885C19.3866 52.5164 19.375 52.3491 19.375 51.4827C19.375 50.6102 19.3866 50.4489 19.5087 49.9768C19.5842 49.684 19.7353 49.2478 19.8457 49.0028C19.9561 48.7578 20.177 48.3575 20.3339 48.1125C20.4908 47.8675 20.8394 47.4492 21.1009 47.1923C21.3624 46.9293 21.7111 46.6246 21.8738 46.517C22.0365 46.4035 22.3678 46.2123 22.6002 46.0868C22.8385 45.9613 23.2511 45.8 23.5184 45.7223C23.7857 45.6386 24.1751 45.555 24.3843 45.5251C24.5877 45.4952 25.041 45.4833 25.378 45.4952ZM44.125 45.4713C44.3052 45.4653 44.6597 45.4892 44.9096 45.5251C45.1595 45.555 45.5488 45.6327 45.7754 45.6924C45.9963 45.7522 46.4437 45.9374 46.7692 46.1047C47.0946 46.272 47.5246 46.529 47.7164 46.6784C47.9082 46.8337 48.222 47.1265 48.4195 47.3357C48.6113 47.5508 48.8786 47.8854 49.0065 48.0826C49.1401 48.2798 49.3493 48.6682 49.4772 48.9491C49.605 49.2239 49.7736 49.696 49.8549 50.0067C49.9828 50.5027 50.0002 50.664 50.0002 51.4827C50.0002 52.2894 49.9828 52.4686 49.8607 52.9287C49.7852 53.2215 49.6225 53.6876 49.5004 53.9625C49.3726 54.2374 49.1692 54.6258 49.0355 54.823C48.9077 55.0261 48.652 55.3608 48.4602 55.5699C48.2743 55.7791 47.9256 56.1017 47.6873 56.287C47.4491 56.4722 47.0132 56.7411 46.7169 56.8905C46.4205 57.0399 45.9323 57.2311 45.636 57.3148C45.1595 57.4462 45.0025 57.4582 44.2064 57.4582C43.4161 57.4582 43.2592 57.4462 42.7768 57.3148C42.4805 57.2311 42.0214 57.0578 41.7541 56.9264C41.4867 56.7889 41.109 56.5738 40.9172 56.4364C40.7255 56.3049 40.4 56.03 40.1967 55.8269C39.9933 55.6297 39.7085 55.301 39.5574 55.1038C39.4121 54.9066 39.1623 54.4644 38.9995 54.1298C38.8368 53.7892 38.6567 53.3172 38.5986 53.0722C38.5346 52.8272 38.4591 52.373 38.4242 52.0683C38.3777 51.65 38.3777 51.3512 38.4242 50.8971C38.4591 50.5624 38.5521 50.0665 38.6218 49.7976C38.6974 49.5287 38.8601 49.1044 38.9821 48.8475C39.1041 48.5965 39.3192 48.2141 39.4644 47.999C39.6097 47.7838 39.9119 47.4193 40.1444 47.1863C40.3768 46.9532 40.7139 46.6664 40.8882 46.5409C41.0683 46.4154 41.417 46.2123 41.6611 46.0868C41.9052 45.9553 42.3178 45.794 42.5793 45.7163C42.835 45.6386 43.2185 45.555 43.4277 45.5251C43.6369 45.5012 43.9507 45.4773 44.125 45.4713Z" fill="white"/>
</svg>
