<svg width="75" height="75" viewBox="0 0 75 75" fill="none" xmlns="http://www.w3.org/2000/svg">
<rect width="75" height="75" fill="#00525D"/>
<path d="M32.8939 17.7205C27.6871 20.1837 24.185 25.5555 24.2551 31.2913C24.2314 37.1221 27.8499 42.651 33.0781 44.9786L35.3955 45.8524C35.3955 45.8524 34.6675 45.9225 34.4832 45.901C29.5998 45.8795 25.0826 43.3428 22.5244 39.0099C20.0149 35.1415 19.9685 29.0338 22.3639 25.092C24.5536 21.0609 28.77 18.7322 32.8939 17.7205ZM47.5499 19.7903C43.8059 17.7804 39.1146 16.6895 34.7873 18.2201C30.3708 19.5439 26.3204 24.1131 25.5924 28.671C24.5942 33.5996 26.2548 38.5057 29.8688 41.793C29.9909 41.9343 30.5765 42.3661 30.5765 42.3661L29.4427 40.1652C27.1117 34.9381 28.1246 28.4076 32.0449 24.0904C35.8341 19.7801 42.0289 18.1353 47.5499 19.7903ZM41.5835 45.1843C40.704 45.6953 39.7387 45.9711 38.8185 46.3159C33.5179 47.8352 27.5492 46.4052 23.7476 42.3062C19.8091 38.2717 18.5148 32.1889 20.4275 26.8204C19.2066 28.8247 18.3543 30.9906 17.8716 33.2967C16.2144 42.0293 20.0364 50.4159 27.7086 54.8891C33.1708 58.2973 41.7192 58.3425 47.2515 55.0496L41.5835 45.1843ZM57.4898 32.7857C56.5595 28.6438 54.3189 24.3787 50.333 22.1077C46.4421 19.6275 40.3378 19.5461 36.4152 21.9799C32.0314 24.4465 29.4042 28.9095 29.2799 33.7929C29.2527 33.9772 29.3093 34.7041 29.3093 34.7041L30.2294 32.4059C32.6655 27.2274 38.2713 23.7242 44.0987 23.8689C49.8334 23.9175 55.1295 27.5315 57.4898 32.7857Z" fill="white"/>
</svg>
