<svg width="195" height="18" viewBox="0 0 195 18" fill="none" xmlns="http://www.w3.org/2000/svg">
<path d="M3 9L3.15789 8.90576L3.31579 8.81153L3.47368 8.71736L3.63158 8.62326L3.78947 8.52925L3.94737 8.43535L4.10526 8.34159L4.26316 8.248L4.42105 8.15459L4.57895 8.06139L4.73684 7.96843L4.89474 7.87571L5.05263 7.78328L5.21053 7.69114L5.36842 7.59933L5.52632 7.50786L5.68421 7.41676L5.84211 7.32605L6 7.23576L6.15789 7.1459L6.31579 7.0565L6.47368 6.96757L6.63158 6.87915L6.78947 6.79125L6.94737 6.7039L7.10526 6.61711L7.26316 6.53091L7.42105 6.44532L7.57895 6.36036L7.73684 6.27606L7.89474 6.19242L8.05263 6.10948L8.21053 6.02725L8.36842 5.94575L8.52632 5.86501L8.68421 5.78504L8.84211 5.70586L9 5.6275L9.1579 5.54997L9.31579 5.47329L9.47368 5.39748L9.63158 5.32256L9.78947 5.24854L9.94737 5.17546L10.1053 5.10331L10.2632 5.03213L10.4211 4.96192L10.5789 4.89272L10.7368 4.82452L10.8947 4.75736L11.0526 4.69124L11.2105 4.62619L11.3684 4.56221L11.5263 4.49933L11.6842 4.43756L11.8421 4.37692L12 4.31742L12.1579 4.25907L12.3158 4.20189L12.4737 4.1459L12.6316 4.0911L12.7895 4.03752L12.9474 3.98516L13.1053 3.93403L13.2632 3.88416L13.4211 3.83555L13.5789 3.78821L13.7368 3.74216L13.8947 3.69741L14.0526 3.65396L14.2105 3.61183L14.3684 3.57104L14.5263 3.53158L14.6842 3.49347L14.8421 3.45672L15 3.42134L15.1579 3.38734L15.3158 3.35472L15.4737 3.32349L15.6316 3.29366L15.7895 3.26524L15.9474 3.23824L16.1053 3.21266L16.2632 3.1885L16.4211 3.16578L16.5789 3.1445L16.7368 3.12466L16.8947 3.10628L17.0526 3.08934L17.2105 3.07387L17.3684 3.05986L17.5263 3.04731L17.6842 3.03623L17.8421 3.02663L18 3.0185L18.1579 3.01184L18.3158 3.00666L18.4737 3.00296L18.6316 3.00074L18.7895 3L18.9474 3.00074L19.1053 3.00296L19.2632 3.00666L19.4211 3.01184L19.5789 3.0185L19.7368 3.02663L19.8947 3.03623L20.0526 3.04731L20.2105 3.05986L20.3684 3.07387L20.5263 3.08934L20.6842 3.10628L20.8421 3.12466L21 3.1445L21.1579 3.16578L21.3158 3.1885L21.4737 3.21266L21.6316 3.23824L21.7895 3.26524L21.9474 3.29366L22.1053 3.32349L22.2632 3.35472L22.4211 3.38734L22.5789 3.42134L22.7368 3.45672L22.8947 3.49347L23.0526 3.53158L23.2105 3.57104L23.3684 3.61183L23.5263 3.65396L23.6842 3.69741L23.8421 3.74216L24 3.78821L24.1579 3.83555L24.3158 3.88416L24.4737 3.93403L24.6316 3.98516L24.7895 4.03752L24.9474 4.0911L25.1053 4.1459L25.2632 4.20189L25.4211 4.25907L25.5789 4.31742L25.7368 4.37692L25.8947 4.43756L26.0526 4.49933L26.2105 4.56221L26.3684 4.62619L26.5263 4.69124L26.6842 4.75736L26.8421 4.82452L27 4.89272L27.1579 4.96192L27.3158 5.03213L27.4737 5.10331L27.6316 5.17546L27.7895 5.24854L27.9474 5.32256L28.1053 5.39748L28.2632 5.47329L28.4211 5.54997L28.579 5.6275L28.7368 5.70586L28.8947 5.78504L29.0526 5.86501L29.2105 5.94575L29.3684 6.02725L29.5263 6.10948L29.6842 6.19242L29.8421 6.27606L30 6.36036L30.1579 6.44532L30.3158 6.53091L30.4737 6.61711L30.6316 6.7039L30.7895 6.79125L30.9474 6.87915L31.1053 6.96757L31.2632 7.0565L31.4211 7.1459L31.579 7.23576L31.7368 7.32605L31.8947 7.41676L32.0526 7.50786L32.2105 7.59933L32.3684 7.69114L32.5263 7.78328L32.6842 7.87571L32.8421 7.96843L33 8.06139L33.1579 8.15459L33.3158 8.248L33.4737 8.34159L33.6316 8.43535L33.7895 8.52925L33.9474 8.62326L34.1053 8.71736L34.2632 8.81153L34.4211 8.90576L34.5789 9L34.7368 9.09424L34.8947 9.18846L35.0526 9.28264L35.2105 9.37674L35.3684 9.47075L35.5263 9.56465L35.6842 9.65841L35.8421 9.752L36 9.84541L36.1579 9.93861L36.3158 10.0316L36.4737 10.1243L36.6316 10.2167L36.7895 10.3089L36.9474 10.4007L37.1053 10.4921L37.2632 10.5832L37.4211 10.6739L37.5789 10.7642L37.7368 10.8541L37.8947 10.9435L38.0526 11.0324L38.2105 11.1208L38.3684 11.2087L38.5263 11.2961L38.6842 11.3829L38.8421 11.4691L39 11.5547L39.1579 11.6396L39.3158 11.7239L39.4737 11.8076L39.6316 11.8905L39.7895 11.9728L39.9474 12.0542L40.1053 12.135L40.2632 12.215L40.4211 12.2941L40.5789 12.3725L40.7368 12.45L40.8947 12.5267L41.0526 12.6025L41.2105 12.6774L41.3684 12.7515L41.5263 12.8245L41.6842 12.8967L41.8421 12.9679L42 13.0381L42.1579 13.1073L42.3158 13.1755L42.4737 13.2426L42.6316 13.3088L42.7895 13.3738L42.9474 13.4378L43.1053 13.5007L43.2632 13.5624L43.4211 13.6231L43.5789 13.6826L43.7368 13.7409L43.8947 13.7981L44.0526 13.8541L44.2105 13.9089L44.3684 13.9625L44.5263 14.0148L44.6842 14.066L44.8421 14.1158L45 14.1645L45.1579 14.2118L45.3158 14.2578L45.4737 14.3026L45.6316 14.346L45.7895 14.3882L45.9474 14.429L46.1053 14.4684L46.2632 14.5065L46.4211 14.5433L46.579 14.5787L46.7368 14.6127L46.8947 14.6453L47.0526 14.6765L47.2105 14.7063L47.3684 14.7348L47.5263 14.7618L47.6842 14.7873L47.8421 14.8115L48 14.8342L48.1579 14.8555L48.3158 14.8753L48.4737 14.8937L48.6316 14.9107L48.7895 14.9261L48.9474 14.9401L49.1053 14.9527L49.2632 14.9638L49.4211 14.9734L49.579 14.9815L49.7368 14.9882L49.8947 14.9933L50.0526 14.997L50.2105 14.9993L50.3684 15L50.5263 14.9993L50.6842 14.997L50.8421 14.9933L51 14.9882L51.1579 14.9815L51.3158 14.9734L51.4737 14.9638L51.6316 14.9527L51.7895 14.9401L51.9474 14.9261L52.1053 14.9107L52.2632 14.8937L52.4211 14.8753L52.579 14.8555L52.7368 14.8342L52.8947 14.8115L53.0526 14.7873L53.2105 14.7618L53.3684 14.7348L53.5263 14.7063L53.6842 14.6765L53.8421 14.6453L54 14.6127L54.1579 14.5787L54.3158 14.5433L54.4737 14.5065L54.6316 14.4684L54.7895 14.429L54.9474 14.3882L55.1053 14.346L55.2632 14.3026L55.4211 14.2578L55.579 14.2118L55.7368 14.1645L55.8947 14.1158L56.0526 14.066L56.2105 14.0148L56.3684 13.9625L56.5263 13.9089L56.6842 13.8541L56.8421 13.7981L57 13.7409L57.1579 13.6826L57.3158 13.6231L57.4737 13.5624L57.6316 13.5007L57.7895 13.4378L57.9474 13.3738L58.1053 13.3088L58.2632 13.2426L58.4211 13.1755L58.579 13.1073L58.7368 13.0381L58.8947 12.9679L59.0526 12.8967L59.2105 12.8245L59.3684 12.7515L59.5263 12.6774L59.6842 12.6025L59.8421 12.5267L60 12.45L60.1579 12.3725L60.3158 12.2941L60.4737 12.215L60.6316 12.135L60.7895 12.0542L60.9474 11.9728L61.1053 11.8905L61.2632 11.8076L61.4211 11.7239L61.579 11.6396L61.7368 11.5547L61.8947 11.4691L62.0526 11.3829L62.2105 11.2961L62.3684 11.2087L62.5263 11.1208L62.6842 11.0324L62.8421 10.9435L63 10.8541L63.1579 10.7642L63.3158 10.6739L63.4737 10.5832L63.6316 10.4921L63.7895 10.4007L63.9474 10.3089L64.1053 10.2167L64.2632 10.1243L64.4211 10.0316L64.579 9.93861L64.7368 9.84541L64.8947 9.752L65.0526 9.65841L65.2105 9.56465L65.3684 9.47075L65.5263 9.37674L65.6842 9.28264L65.8421 9.18846L66 9.09424" stroke="white" stroke-width="5" stroke-miterlimit="10" stroke-linecap="round" stroke-linejoin="round"/>
<path d="M66 9L66.1579 8.90576L66.3158 8.81153L66.4737 8.71736L66.6316 8.62326L66.7895 8.52925L66.9474 8.43535L67.1053 8.34159L67.2632 8.248L67.4211 8.15459L67.5789 8.06139L67.7368 7.96843L67.8947 7.87571L68.0526 7.78328L68.2105 7.69114L68.3684 7.59933L68.5263 7.50786L68.6842 7.41676L68.8421 7.32605L69 7.23576L69.1579 7.1459L69.3158 7.0565L69.4737 6.96757L69.6316 6.87915L69.7895 6.79125L69.9474 6.7039L70.1053 6.61711L70.2632 6.53091L70.4211 6.44532L70.5789 6.36036L70.7368 6.27606L70.8947 6.19242L71.0526 6.10948L71.2105 6.02725L71.3684 5.94575L71.5263 5.86501L71.6842 5.78504L71.8421 5.70586L72 5.6275L72.1579 5.54997L72.3158 5.47329L72.4737 5.39748L72.6316 5.32256L72.7895 5.24854L72.9474 5.17546L73.1053 5.10331L73.2632 5.03213L73.4211 4.96192L73.5789 4.89272L73.7368 4.82452L73.8947 4.75736L74.0526 4.69124L74.2105 4.62619L74.3684 4.56221L74.5263 4.49933L74.6842 4.43756L74.8421 4.37692L75 4.31742L75.1579 4.25907L75.3158 4.20189L75.4737 4.1459L75.6316 4.0911L75.7895 4.03752L75.9474 3.98516L76.1053 3.93403L76.2632 3.88416L76.4211 3.83555L76.5789 3.78821L76.7368 3.74216L76.8947 3.69741L77.0526 3.65396L77.2105 3.61183L77.3684 3.57104L77.5263 3.53158L77.6842 3.49347L77.8421 3.45672L78 3.42134L78.1579 3.38734L78.3158 3.35472L78.4737 3.32349L78.6316 3.29366L78.7895 3.26524L78.9474 3.23824L79.1053 3.21266L79.2632 3.1885L79.4211 3.16578L79.5789 3.1445L79.7368 3.12466L79.8947 3.10628L80.0526 3.08934L80.2105 3.07387L80.3684 3.05986L80.5263 3.04731L80.6842 3.03623L80.8421 3.02663L81 3.0185L81.1579 3.01184L81.3158 3.00666L81.4737 3.00296L81.6316 3.00074L81.7895 3L81.9474 3.00074L82.1053 3.00296L82.2632 3.00666L82.4211 3.01184L82.5789 3.0185L82.7368 3.02663L82.8947 3.03623L83.0526 3.04731L83.2105 3.05986L83.3684 3.07387L83.5263 3.08934L83.6842 3.10628L83.8421 3.12466L84 3.1445L84.1579 3.16578L84.3158 3.1885L84.4737 3.21266L84.6316 3.23824L84.7895 3.26524L84.9474 3.29366L85.1053 3.32349L85.2632 3.35472L85.4211 3.38734L85.5789 3.42134L85.7368 3.45672L85.8947 3.49347L86.0526 3.53158L86.2105 3.57104L86.3684 3.61183L86.5263 3.65396L86.6842 3.69741L86.8421 3.74216L87 3.78821L87.1579 3.83555L87.3158 3.88416L87.4737 3.93403L87.6316 3.98516L87.7895 4.03752L87.9474 4.0911L88.1053 4.1459L88.2632 4.20189L88.4211 4.25907L88.5789 4.31742L88.7368 4.37692L88.8947 4.43756L89.0526 4.49933L89.2105 4.56221L89.3684 4.62619L89.5263 4.69124L89.6842 4.75736L89.8421 4.82452L90 4.89272L90.1579 4.96192L90.3158 5.03213L90.4737 5.10331L90.6316 5.17546L90.7895 5.24854L90.9474 5.32256L91.1053 5.39748L91.2632 5.47329L91.4211 5.54997L91.579 5.6275L91.7368 5.70586L91.8947 5.78504L92.0526 5.86501L92.2105 5.94575L92.3684 6.02725L92.5263 6.10948L92.6842 6.19242L92.8421 6.27606L93 6.36036L93.1579 6.44532L93.3158 6.53091L93.4737 6.61711L93.6316 6.7039L93.7895 6.79125L93.9474 6.87915L94.1053 6.96757L94.2632 7.0565L94.4211 7.1459L94.579 7.23576L94.7368 7.32605L94.8947 7.41676L95.0526 7.50786L95.2105 7.59933L95.3684 7.69114L95.5263 7.78328L95.6842 7.87571L95.8421 7.96843L96 8.06139L96.1579 8.15459L96.3158 8.248L96.4737 8.34159L96.6316 8.43535L96.7895 8.52925L96.9474 8.62326L97.1053 8.71736L97.2632 8.81153L97.4211 8.90576L97.5789 9L97.7368 9.09424L97.8947 9.18846L98.0526 9.28264L98.2105 9.37674L98.3684 9.47075L98.5263 9.56465L98.6842 9.65841L98.8421 9.752L99 9.84541L99.1579 9.93861L99.3158 10.0316L99.4737 10.1243L99.6316 10.2167L99.7895 10.3089L99.9474 10.4007L100.105 10.4921L100.263 10.5832L100.421 10.6739L100.579 10.7642L100.737 10.8541L100.895 10.9435L101.053 11.0324L101.211 11.1208L101.368 11.2087L101.526 11.2961L101.684 11.3829L101.842 11.4691L102 11.5547L102.158 11.6396L102.316 11.7239L102.474 11.8076L102.632 11.8905L102.789 11.9728L102.947 12.0542L103.105 12.135L103.263 12.215L103.421 12.2941L103.579 12.3725L103.737 12.45L103.895 12.5267L104.053 12.6025L104.211 12.6774L104.368 12.7515L104.526 12.8245L104.684 12.8967L104.842 12.9679L105 13.0381L105.158 13.1073L105.316 13.1755L105.474 13.2426L105.632 13.3088L105.789 13.3738L105.947 13.4378L106.105 13.5007L106.263 13.5624L106.421 13.6231L106.579 13.6826L106.737 13.7409L106.895 13.7981L107.053 13.8541L107.211 13.9089L107.368 13.9625L107.526 14.0148L107.684 14.066L107.842 14.1158L108 14.1645L108.158 14.2118L108.316 14.2578L108.474 14.3026L108.632 14.346L108.789 14.3882L108.947 14.429L109.105 14.4684L109.263 14.5065L109.421 14.5433L109.579 14.5787L109.737 14.6127L109.895 14.6453L110.053 14.6765L110.211 14.7063L110.368 14.7348L110.526 14.7618L110.684 14.7873L110.842 14.8115L111 14.8342L111.158 14.8555L111.316 14.8753L111.474 14.8937L111.632 14.9107L111.789 14.9261L111.947 14.9401L112.105 14.9527L112.263 14.9638L112.421 14.9734L112.579 14.9815L112.737 14.9882L112.895 14.9933L113.053 14.997L113.211 14.9993L113.368 15L113.526 14.9993L113.684 14.997L113.842 14.9933L114 14.9882L114.158 14.9815L114.316 14.9734L114.474 14.9638L114.632 14.9527L114.789 14.9401L114.947 14.9261L115.105 14.9107L115.263 14.8937L115.421 14.8753L115.579 14.8555L115.737 14.8342L115.895 14.8115L116.053 14.7873L116.211 14.7618L116.368 14.7348L116.526 14.7063L116.684 14.6765L116.842 14.6453L117 14.6127L117.158 14.5787L117.316 14.5433L117.474 14.5065L117.632 14.4684L117.789 14.429L117.947 14.3882L118.105 14.346L118.263 14.3026L118.421 14.2578L118.579 14.2118L118.737 14.1645L118.895 14.1158L119.053 14.066L119.211 14.0148L119.368 13.9625L119.526 13.9089L119.684 13.8541L119.842 13.7981L120 13.7409L120.158 13.6826L120.316 13.6231L120.474 13.5624L120.632 13.5007L120.789 13.4378L120.947 13.3738L121.105 13.3088L121.263 13.2426L121.421 13.1755L121.579 13.1073L121.737 13.0381L121.895 12.9679L122.053 12.8967L122.211 12.8245L122.368 12.7515L122.526 12.6774L122.684 12.6025L122.842 12.5267L123 12.45L123.158 12.3725L123.316 12.2941L123.474 12.215L123.632 12.135L123.789 12.0542L123.947 11.9728L124.105 11.8905L124.263 11.8076L124.421 11.7239L124.579 11.6396L124.737 11.5547L124.895 11.4691L125.053 11.3829L125.211 11.2961L125.368 11.2087L125.526 11.1208L125.684 11.0324L125.842 10.9435L126 10.8541L126.158 10.7642L126.316 10.6739L126.474 10.5832L126.632 10.4921L126.789 10.4007L126.947 10.3089L127.105 10.2167L127.263 10.1243L127.421 10.0316L127.579 9.93861L127.737 9.84541L127.895 9.752L128.053 9.65841L128.211 9.56465L128.368 9.47075L128.526 9.37674L128.684 9.28264L128.842 9.18846L129 9.09424" stroke="white" stroke-width="5" stroke-miterlimit="10" stroke-linecap="round" stroke-linejoin="round"/>
<path d="M129 9L129.158 8.90576L129.316 8.81153L129.474 8.71736L129.632 8.62326L129.789 8.52925L129.947 8.43535L130.105 8.34159L130.263 8.248L130.421 8.15459L130.579 8.06139L130.737 7.96843L130.895 7.87571L131.053 7.78328L131.211 7.69114L131.368 7.59933L131.526 7.50786L131.684 7.41676L131.842 7.32605L132 7.23576L132.158 7.1459L132.316 7.0565L132.474 6.96757L132.632 6.87915L132.789 6.79125L132.947 6.7039L133.105 6.61711L133.263 6.53091L133.421 6.44532L133.579 6.36036L133.737 6.27606L133.895 6.19242L134.053 6.10948L134.211 6.02725L134.368 5.94575L134.526 5.86501L134.684 5.78504L134.842 5.70586L135 5.6275L135.158 5.54997L135.316 5.47329L135.474 5.39748L135.632 5.32256L135.789 5.24854L135.947 5.17546L136.105 5.10331L136.263 5.03213L136.421 4.96192L136.579 4.89272L136.737 4.82452L136.895 4.75736L137.053 4.69124L137.211 4.62619L137.368 4.56221L137.526 4.49933L137.684 4.43756L137.842 4.37692L138 4.31742L138.158 4.25907L138.316 4.20189L138.474 4.1459L138.632 4.0911L138.789 4.03752L138.947 3.98516L139.105 3.93403L139.263 3.88416L139.421 3.83555L139.579 3.78821L139.737 3.74216L139.895 3.69741L140.053 3.65396L140.211 3.61183L140.368 3.57104L140.526 3.53158L140.684 3.49347L140.842 3.45672L141 3.42134L141.158 3.38734L141.316 3.35472L141.474 3.32349L141.632 3.29366L141.789 3.26524L141.947 3.23824L142.105 3.21266L142.263 3.1885L142.421 3.16578L142.579 3.1445L142.737 3.12466L142.895 3.10628L143.053 3.08934L143.211 3.07387L143.368 3.05986L143.526 3.04731L143.684 3.03623L143.842 3.02663L144 3.0185L144.158 3.01184L144.316 3.00666L144.474 3.00296L144.632 3.00074L144.789 3L144.947 3.00074L145.105 3.00296L145.263 3.00666L145.421 3.01184L145.579 3.0185L145.737 3.02663L145.895 3.03623L146.053 3.04731L146.211 3.05986L146.368 3.07387L146.526 3.08934L146.684 3.10628L146.842 3.12466L147 3.1445L147.158 3.16578L147.316 3.1885L147.474 3.21266L147.632 3.23824L147.789 3.26524L147.947 3.29366L148.105 3.32349L148.263 3.35472L148.421 3.38734L148.579 3.42134L148.737 3.45672L148.895 3.49347L149.053 3.53158L149.211 3.57104L149.368 3.61183L149.526 3.65396L149.684 3.69741L149.842 3.74216L150 3.78821L150.158 3.83555L150.316 3.88416L150.474 3.93403L150.632 3.98516L150.789 4.03752L150.947 4.0911L151.105 4.1459L151.263 4.20189L151.421 4.25907L151.579 4.31742L151.737 4.37692L151.895 4.43756L152.053 4.49933L152.211 4.56221L152.368 4.62619L152.526 4.69124L152.684 4.75736L152.842 4.82452L153 4.89272L153.158 4.96192L153.316 5.03213L153.474 5.10331L153.632 5.17546L153.789 5.24854L153.947 5.32256L154.105 5.39748L154.263 5.47329L154.421 5.54997L154.579 5.6275L154.737 5.70586L154.895 5.78504L155.053 5.86501L155.211 5.94575L155.368 6.02725L155.526 6.10948L155.684 6.19242L155.842 6.27606L156 6.36036L156.158 6.44532L156.316 6.53091L156.474 6.61711L156.632 6.7039L156.789 6.79125L156.947 6.87915L157.105 6.96757L157.263 7.0565L157.421 7.1459L157.579 7.23576L157.737 7.32605L157.895 7.41676L158.053 7.50786L158.211 7.59933L158.368 7.69114L158.526 7.78328L158.684 7.87571L158.842 7.96843L159 8.06139L159.158 8.15459L159.316 8.248L159.474 8.34159L159.632 8.43535L159.789 8.52925L159.947 8.62326L160.105 8.71736L160.263 8.81153L160.421 8.90576L160.579 9L160.737 9.09424L160.895 9.18846L161.053 9.28264L161.211 9.37674L161.368 9.47075L161.526 9.56465L161.684 9.65841L161.842 9.752L162 9.84541L162.158 9.93861L162.316 10.0316L162.474 10.1243L162.632 10.2167L162.789 10.3089L162.947 10.4007L163.105 10.4921L163.263 10.5832L163.421 10.6739L163.579 10.7642L163.737 10.8541L163.895 10.9435L164.053 11.0324L164.211 11.1208L164.368 11.2087L164.526 11.2961L164.684 11.3829L164.842 11.4691L165 11.5547L165.158 11.6396L165.316 11.7239L165.474 11.8076L165.632 11.8905L165.789 11.9728L165.947 12.0542L166.105 12.135L166.263 12.215L166.421 12.2941L166.579 12.3725L166.737 12.45L166.895 12.5267L167.053 12.6025L167.211 12.6774L167.368 12.7515L167.526 12.8245L167.684 12.8967L167.842 12.9679L168 13.0381L168.158 13.1073L168.316 13.1755L168.474 13.2426L168.632 13.3088L168.789 13.3738L168.947 13.4378L169.105 13.5007L169.263 13.5624L169.421 13.6231L169.579 13.6826L169.737 13.7409L169.895 13.7981L170.053 13.8541L170.211 13.9089L170.368 13.9625L170.526 14.0148L170.684 14.066L170.842 14.1158L171 14.1645L171.158 14.2118L171.316 14.2578L171.474 14.3026L171.632 14.346L171.789 14.3882L171.947 14.429L172.105 14.4684L172.263 14.5065L172.421 14.5433L172.579 14.5787L172.737 14.6127L172.895 14.6453L173.053 14.6765L173.211 14.7063L173.368 14.7348L173.526 14.7618L173.684 14.7873L173.842 14.8115L174 14.8342L174.158 14.8555L174.316 14.8753L174.474 14.8937L174.632 14.9107L174.789 14.9261L174.947 14.9401L175.105 14.9527L175.263 14.9638L175.421 14.9734L175.579 14.9815L175.737 14.9882L175.895 14.9933L176.053 14.997L176.211 14.9993L176.368 15L176.526 14.9993L176.684 14.997L176.842 14.9933L177 14.9882L177.158 14.9815L177.316 14.9734L177.474 14.9638L177.632 14.9527L177.789 14.9401L177.947 14.9261L178.105 14.9107L178.263 14.8937L178.421 14.8753L178.579 14.8555L178.737 14.8342L178.895 14.8115L179.053 14.7873L179.211 14.7618L179.368 14.7348L179.526 14.7063L179.684 14.6765L179.842 14.6453L180 14.6127L180.158 14.5787L180.316 14.5433L180.474 14.5065L180.632 14.4684L180.789 14.429L180.947 14.3882L181.105 14.346L181.263 14.3026L181.421 14.2578L181.579 14.2118L181.737 14.1645L181.895 14.1158L182.053 14.066L182.211 14.0148L182.368 13.9625L182.526 13.9089L182.684 13.8541L182.842 13.7981L183 13.7409L183.158 13.6826L183.316 13.6231L183.474 13.5624L183.632 13.5007L183.789 13.4378L183.947 13.3738L184.105 13.3088L184.263 13.2426L184.421 13.1755L184.579 13.1073L184.737 13.0381L184.895 12.9679L185.053 12.8967L185.211 12.8245L185.368 12.7515L185.526 12.6774L185.684 12.6025L185.842 12.5267L186 12.45L186.158 12.3725L186.316 12.2941L186.474 12.215L186.632 12.135L186.789 12.0542L186.947 11.9728L187.105 11.8905L187.263 11.8076L187.421 11.7239L187.579 11.6396L187.737 11.5547L187.895 11.4691L188.053 11.3829L188.211 11.2961L188.368 11.2087L188.526 11.1208L188.684 11.0324L188.842 10.9435L189 10.8541L189.158 10.7642L189.316 10.6739L189.474 10.5832L189.632 10.4921L189.789 10.4007L189.947 10.3089L190.105 10.2167L190.263 10.1243L190.421 10.0316L190.579 9.93861L190.737 9.84541L190.895 9.752L191.053 9.65841L191.211 9.56465L191.368 9.47075L191.526 9.37674L191.684 9.28264L191.842 9.18846L192 9.09424" stroke="white" stroke-width="5" stroke-miterlimit="10" stroke-linecap="round" stroke-linejoin="round"/>
</svg>
